<svg xmlns="http://www.w3.org/2000/svg" viewBox="0 0 141.2 200"><defs><style>.cls-1{isolation:isolate;}.cls-2{fill:#1b1819;opacity:0.5;mix-blend-mode:multiply;}.cls-3{fill:#fff;}.cls-4{fill:#dbdcdb;}.cls-5{fill:#991347;}.cls-6{fill:#811340;}.cls-7{fill:#008a8e;}.cls-8{fill:#4fa5a2;}.cls-9{fill:#e73478;}.cls-10{fill:#82cdcd;}.cls-11{fill:#005452;}.cls-12{fill:#621134;}.cls-13{fill:#006d6d;}</style></defs><title>Ativo 6</title><g class="cls-1"><g id="Camada_2" data-name="Camada 2"><g id="Layer_1" data-name="Layer 1"><polygon class="cls-2" points="72.67 10.62 0 100.02 70.6 200 140.85 111.09 72.67 10.62"/><rect class="cls-3" x="39.75" y="127.77" width="1.57" height="18.27" transform="translate(81.06 273.8) rotate(180)"/><rect class="cls-3" x="39.75" y="127.77" width="1.57" height="18.27" transform="translate(177.43 96.37) rotate(90)"/><rect class="cls-3" x="20.47" y="147.05" width="1.57" height="18.27" transform="translate(42.5 312.37) rotate(-180)"/><rect class="cls-3" x="20.47" y="147.05" width="1.57" height="18.27" transform="translate(177.43 134.93) rotate(90)"/><rect class="cls-3" x="60.67" y="147.05" width="1.57" height="18.27" transform="translate(122.9 312.37) rotate(180)"/><rect class="cls-3" x="60.67" y="147.05" width="1.57" height="18.27" transform="translate(217.64 94.73) rotate(90)"/><rect class="cls-3" x="31.45" y="17.55" width="1.78" height="20.79" transform="translate(64.68 55.9) rotate(180)"/><rect class="cls-3" x="31.45" y="17.55" width="1.78" height="20.79" transform="translate(60.29 -4.39) rotate(90)"/><rect class="cls-3" x="9.5" y="39.5" width="1.78" height="20.79" transform="translate(20.79 99.79) rotate(-180)"/><rect class="cls-3" x="9.5" y="39.5" width="1.78" height="20.79" transform="translate(60.29 39.5) rotate(90)"/><rect class="cls-3" x="55.26" y="39.5" width="1.78" height="20.79" transform="translate(112.3 99.79) rotate(180)"/><rect class="cls-3" x="55.26" y="39.5" width="1.78" height="20.79" transform="translate(106.05 -6.26) rotate(90)"/><circle class="cls-3" cx="80.9" cy="172.41" r="2.61"/><circle class="cls-3" cx="80.9" cy="162.15" r="2.61"/><circle class="cls-3" cx="80.9" cy="151.89" r="2.61"/><circle class="cls-3" cx="91.16" cy="141.62" r="2.61"/><circle class="cls-3" cx="91.16" cy="131.36" r="2.61"/><circle class="cls-3" cx="91.16" cy="172.41" r="2.61"/><circle class="cls-3" cx="101.42" cy="172.41" r="2.61"/><circle class="cls-3" cx="111.68" cy="172.41" r="2.61"/><circle class="cls-3" cx="121.94" cy="172.41" r="2.61"/><circle class="cls-3" cx="91.16" cy="162.15" r="2.61"/><circle class="cls-3" cx="101.42" cy="162.15" r="2.61"/><circle class="cls-3" cx="111.68" cy="162.15" r="2.61"/><circle class="cls-3" cx="121.94" cy="162.15" r="2.61"/><circle class="cls-3" cx="91.16" cy="151.89" r="2.61"/><circle class="cls-3" cx="101.42" cy="151.89" r="2.61"/><circle class="cls-3" cx="111.68" cy="151.89" r="2.61"/><circle class="cls-3" cx="121.94" cy="151.89" r="2.61"/><circle class="cls-3" cx="101.42" cy="141.62" r="2.61"/><circle class="cls-3" cx="111.68" cy="141.62" r="2.61"/><circle class="cls-3" cx="121.94" cy="141.62" r="2.61"/><circle class="cls-3" cx="132.2" cy="141.62" r="2.61"/><circle class="cls-3" cx="101.42" cy="131.36" r="2.61"/><circle class="cls-3" cx="111.68" cy="131.36" r="2.61"/><circle class="cls-3" cx="121.94" cy="131.36" r="2.61"/><circle class="cls-3" cx="132.2" cy="131.36" r="2.61"/><polygon class="cls-3" points="70.6 0 0 100.02 70.6 200 141.2 99.98 70.6 0"/><polygon class="cls-4" points="70.6 9.06 9 100.01 70.6 190.94 132.2 99.99 70.6 9.06"/><path class="cls-5" d="M70.6,11.59,11.66,100,70.6,188.41,129.54,100ZM47,70.47l12.85-1.14,1.47,1.14v46.31l-16.83-5.69.71-14c0-3.64.07-7,.24-10a34.06,34.06,0,0,1-3.7,3.64l-2.11,1.67-1.14-.88,8.48-21.06Zm43.33,42.8a9.51,9.51,0,0,0,.58-1.3q1.31-3.71,1.32-13.1c0-6.28-.46-10.68-1.34-13.19s-2.4-3.78-4.5-3.78-3.62,1.21-4.5,3.64S80.5,92.42,80.5,98.88s.44,10.81,1.34,13.21a5.3,5.3,0,0,0,2.53,3.17L70.6,119.93V75.06q5.59-5.41,15.75-5.4,11.3,0,17.08,7.34t5.78,21.88a62.33,62.33,0,0,1-.5,8.17Z"/><path class="cls-6" d="M90.85,85.69c.88,2.51,1.34,6.91,1.34,13.19s-.45,10.62-1.32,13.1a9.51,9.51,0,0,1-.58,1.3l-5.92,2a5.3,5.3,0,0,1-2.53-3.17c-.91-2.4-1.34-6.8-1.34-13.21s.44-10.9,1.34-13.33,2.39-3.64,4.5-3.64S90,83.17,90.85,85.69Z"/><path class="cls-6" d="M108.71,107a62.33,62.33,0,0,0,.5-8.17q0-14.53-5.78-21.88T86.35,69.66q-10.17,0-15.75,5.4V11.59L129.54,100Z"/><polygon class="cls-7" points="129.54 100 70.6 188.41 70.6 119.93 84.38 115.27 90.3 113.27 108.71 107.05 129.54 100"/><polygon class="cls-8" points="70.6 119.93 70.6 188.41 11.66 100 16.53 101.65 32.26 106.97 44.46 111.09 61.29 116.79 68.19 119.12 70.6 119.93"/><polygon class="cls-9" points="64.22 27.47 46.92 70.51 38.44 91.57 32.26 106.97 16.53 101.65 64.22 27.47"/><polygon class="cls-10" points="56.01 162.79 16.54 101.65 32.26 106.96 56.01 162.79"/><path class="cls-11" d="M90.3,113.27a4.49,4.49,0,0,1-5.92,2L70.6,119.93V75.06a16.72,16.72,0,0,0-1.5,1.65q-5.62,7.05-5.62,22.17,0,13,4.7,20.24c.33.52.68,1,1,1.49a16.92,16.92,0,0,0,1.37,1.53q5.66,5.78,15.75,5.78,11.6,0,17.23-7,4-4.93,5.13-13.86Z"/><path class="cls-12" d="M109.21,98.88a62.33,62.33,0,0,1-.5,8.17L90.3,113.27a9.51,9.51,0,0,0,.58-1.3q1.31-3.71,1.32-13.1c0-6.28-.46-10.68-1.34-13.19s-2.4-3.78-4.5-3.78-3.62,1.21-4.5,3.64S80.5,92.42,80.5,98.88s.44,10.81,1.34,13.21a5.3,5.3,0,0,0,2.53,3.17L70.6,119.93V75.06q5.59-5.41,15.75-5.4,11.3,0,17.08,7.34T109.21,98.88Z"/><path class="cls-12" d="M61.29,70.47v46.31l-16.83-5.69.71-14c0-3.64.07-7,.24-10a34.06,34.06,0,0,1-3.7,3.64l-2.11,1.67-1.14-.88,8.48-21.06,0,0,12.85-1.14Z"/><polygon class="cls-13" points="46.92 70.51 38.44 91.57 38.11 91.31 34.94 79.91 46.92 70.51"/><polygon class="cls-11" points="61.29 116.79 61.29 127.14 45.16 127.14 43.69 125.98 44.46 111.09 61.29 116.79"/><path class="cls-3" d="M107.74,97.73q0,15-5.63,22t-17.24,7q-11.35,0-17.11-7.31T62,97.73q0-15.12,5.63-22.17t17.24-7.05q11.3,0,17.08,7.34T107.74,97.73ZM79,97.73q0,9.61,1.34,13.22t4.5,3.6q3.2,0,4.53-3.72t1.32-13.1q0-9.42-1.34-13.2t-4.5-3.78q-3.16,0-4.5,3.64T79,97.73Z"/><path class="cls-3" d="M45.5,69.32l-12,9.44,4.64,12.55,2.11-1.68A34,34,0,0,0,43.93,86q-.24,4.53-.24,10v30H59.82V69.32Z"/><path class="cls-11" d="M67.83,139.87l-5.3-8.51h6.8L72,136.24l2.7-4.87h6.82L76,139.87l5.65,8.86h-6.8L72,143.46l-2.91,5.27H62.23Z"/><path class="cls-3" d="M67.07,138.84l-5.3-8.51h6.8l2.64,4.87,2.7-4.87h6.82l-5.44,8.51,5.65,8.86h-6.8l-2.93-5.27L68.3,147.7H61.48Z"/><path class="cls-3" d="M110.24,28.54a4.87,4.87,0,1,0,3.66,5.84A4.87,4.87,0,0,0,110.24,28.54Zm2.38,4a1.91,1.91,0,1,1-1.43-2.29A1.91,1.91,0,0,1,112.62,32.55Z"/><path class="cls-3" d="M134.48,34.11A4.87,4.87,0,1,0,138.14,40,4.87,4.87,0,0,0,134.48,34.11Zm2.38,4a1.91,1.91,0,1,1-1.43-2.29A1.91,1.91,0,0,1,136.87,38.13Z"/><path class="cls-3" d="M125.66,47.86c-3.16,2.43-7.53,0-7.59,0a1.06,1.06,0,0,0-1,1.85,11.94,11.94,0,0,0,3,1.1l.32.07A8,8,0,0,0,127,49.55a1.06,1.06,0,1,0-1.29-1.69Z"/><path class="cls-3" d="M106.8,24.21a5.65,5.65,0,0,1,1.3-.06,9.85,9.85,0,0,1,1.34.19h0a.29.29,0,0,0,.21-.52,3.86,3.86,0,0,0-1.43-.65,4.22,4.22,0,0,0-1.6-.06,4.81,4.81,0,0,0-1.51.48,4.14,4.14,0,0,0-1.25,1,.29.29,0,0,0,.33.45h0c.41-.18.85-.34,1.27-.48A7.89,7.89,0,0,1,106.8,24.21Z"/><path class="cls-3" d="M140.44,31.13a4.81,4.81,0,0,0-1.18-1.05,4.22,4.22,0,0,0-1.49-.59,3.86,3.86,0,0,0-1.57,0,.29.29,0,0,0,0,.56h0a9.85,9.85,0,0,1,1.3.38,5.65,5.65,0,0,1,1.16.58,7.88,7.88,0,0,1,1,.8c.33.3.66.63,1,1l0,0a.29.29,0,0,0,.48-.28A4.13,4.13,0,0,0,140.44,31.13Z"/></g></g></g></svg>