<?xml version="1.0" encoding="utf-8"?>
<!-- Generator: Adobe Illustrator 27.0.1, SVG Export Plug-In . SVG Version: 6.00 Build 0)  -->
<svg version="1.1" id="Camada_1" xmlns="http://www.w3.org/2000/svg" xmlns:xlink="http://www.w3.org/1999/xlink" x="0px" y="0px"
	 viewBox="0 0 141.2 200" style="enable-background:new 0 0 141.2 200;" xml:space="preserve">
<style type="text/css">
	.st0{opacity:0.5;fill:#1B1819;enable-background:new    ;}
	.st1{fill:#FFFFFF;}
	.st2{fill:#DBDCDB;}
	.st3{fill:#991347;}
	.st4{fill:#008A8E;}
	.st5{fill:#4FA5A2;}
	.st6{fill:#E73478;}
	.st7{fill:#82CDCD;}
	.st8{opacity:0.5;fill:#005452;}
	.st9{font-family:'MyriadPro-BlackSemiExt';}
	.st10{font-size:72.4303px;}
	.st11{letter-spacing:-5;}
</style>
<g>
	<g>
		<polygon class="st0" points="72.7,10.6 0,100 70.6,200 140.9,111.1"/>
		<rect x="39.7" y="127.8" class="st1" width="1.6" height="18.3"/>
		<rect x="31.4" y="136.1" class="st1" width="18.3" height="1.6"/>
		<rect x="60.7" y="147" class="st1" width="1.6" height="18.3"/>
		<rect x="52.3" y="155.4" class="st1" width="18.3" height="1.6"/>
		<rect x="55.3" y="39.5" class="st1" width="1.8" height="20.8"/>
		<rect x="45.8" y="49" class="st1" width="20.8" height="1.8"/>
		<circle class="st1" cx="80.9" cy="172.4" r="2.6"/>
		<circle class="st1" cx="80.9" cy="162.1" r="2.6"/>
		<circle class="st1" cx="80.9" cy="151.9" r="2.6"/>
		<circle class="st1" cx="91.2" cy="141.6" r="2.6"/>
		<circle class="st1" cx="91.2" cy="131.4" r="2.6"/>
		<circle class="st1" cx="91.2" cy="162.1" r="2.6"/>
		<circle class="st1" cx="91.2" cy="151.9" r="2.6"/>
		<circle class="st1" cx="101.4" cy="151.9" r="2.6"/>
		<circle class="st1" cx="101.4" cy="141.6" r="2.6"/>
		<circle class="st1" cx="101.4" cy="131.4" r="2.6"/>
		<circle class="st1" cx="111.7" cy="131.4" r="2.6"/>
		<polygon class="st1" points="70.6,0 0,100 70.6,200 141.2,100 		"/>
		<polygon class="st2" points="70.6,9.1 9,100 70.6,190.9 132.2,100 		"/>
		<path class="st3" d="M70.6,11.6L11.7,100l58.9,88.4l58.9-88.4L70.6,11.6z"/>
		<polygon class="st4" points="129.5,100 70.6,188.4 70.6,119.9 84.4,115.3 90.3,113.3 108.7,107.1 		"/>
		<polygon class="st5" points="70.6,119.9 70.6,188.4 11.7,100 16.5,101.7 32.3,107 44.5,111.1 61.3,116.8 68.2,119.1 		"/>
		<polygon class="st6" points="64.2,27.5 46.9,70.5 38.4,91.6 32.3,107 16.5,101.7 		"/>
		<polygon class="st7" points="56,162.8 16.5,101.7 32.3,107 		"/>
	</g>
	<path class="st8" d="M66.8,141.4l-5.3-8.5h6.8l2.7,4.9l2.7-4.9h6.8l-5.5,8.5l5.7,8.9h-6.8L71,145l-2.9,5.3h-6.9L66.8,141.4z"/>
	<path class="st1" d="M65.4,141.4l-5.3-8.5h6.8l2.6,4.9l2.7-4.9h6.8l-5.4,8.5l5.7,8.9h-6.8l-2.9-5.3l-2.9,5.3h-6.8L65.4,141.4z"/>
	<text transform="matrix(1 0 0 1 28.3221 124.2487)" class="st8 st9 st10 st11">50</text>
	<text transform="matrix(1 0 0 1 26.0246 124.2495)" class="st1 st9 st10 st11">50</text>
</g>
</svg>
