<?xml version="1.0" encoding="utf-8"?>
<!-- Generator: Adobe Illustrator 21.0.0, SVG Export Plug-In . SVG Version: 6.00 Build 0)  -->
<svg version="1.1" id="Layer_1" xmlns="http://www.w3.org/2000/svg" xmlns:xlink="http://www.w3.org/1999/xlink" x="0px" y="0px"
	 viewBox="0 0 114.9 155.6" style="enable-background:new 0 0 114.9 155.6;" xml:space="preserve">
<style type="text/css">
	.st0{fill:#FFFFFF;}
	.st1{fill:#4EA4A1;}
	.st2{fill:#226D67;}
	.st3{fill:#6AC5C6;}
</style>
<path class="st0" d="M57.4,1.7l56.2,76.1l-56.3,76.1L1.1,77.8L57.4,1.7 M57.4,0l-0.8,1.1L0.4,77.2L0,77.8l0.4,0.6l56.2,76.1l0.8,1.1
	l0.8-1.1l56.3-76.1l0.4-0.6l-0.4-0.6L58.2,1.1L57.4,0L57.4,0z"/>
<g>
	<g>
		<polygon class="st1" points="57.5,153.9 1.2,77.8 57.4,1.7 113.7,77.8 		"/>
	</g>
</g>
<g>
	<path class="st2" d="M99.2,39.9c0.1-3.5-4.8-3.3-4.8-3.3c2-1.4,2.7-5.4,2.7-5.4s-3.5,2.2-7.3,1.9c-3.5-1.9-14.3-7.3-32.4-7.3
		c-22.9,0-29.8,6.5-39.7,5.4c0,0,0.7,4,2.7,5.4c-3.1,6.5-2.1,33,0.3,38.6c0,10.7,11.1,17.3,24.6,19.7c0.8,5.5,7.7,9.7,16.1,9.7
		c8.9,0,16.1-4.8,16.1-10.8c0-0.3,0-0.6-0.1-0.9c9.7-3.3,16.8-9.2,16.8-17.7c0,0-0.4-12.3,1.4-22.2c0.7-3.9,0.1-10.9-1.1-11.8
		C95.7,39.6,97.5,39,99.2,39.9z"/>
	<path class="st2" d="M57.5,153.9l27-36.6c-1.3-0.4-2.7-0.8-4.1-1.1c-7.1,4.3-39.6,4.8-45.8,0c-1.4,0.3-2.8,0.7-4.1,1.1L57.5,153.9z
		"/>
	<g>
		<circle class="st3" cx="41.2" cy="75.9" r="2.8"/>
		<circle class="st3" cx="77.4" cy="75.9" r="2.8"/>
		<path class="st3" d="M96.7,77.4c0-3.6-2.7-5.3-6.3-5.6V56.9c0-6-11.7-9-27.3-9.6c-3.2,4.2-3.1,10-1.6,12.4
			c-8.6-0.1-10.8-5.4-11-9.9c-1.6,1.9-2.4,4.2-2.2,5.7c-4.4-2-5.3-4.9-5-7.5c-11.3,1.2-19.1,4.1-19.1,9v14.9c-3.6,0.3-6.3,2-6.3,5.6
			c0,5.4,2.7,8.4,6.3,9.1v1.8c0,0-1,10,8.9,14.5c3.3,1.5,6.5,2.9,9.5,4.1v3.2c0,0-0.4,6.1-8.3,6.1c0,10.2,14.2,13.4,22.9,13.4
			c8.7,0,22.9-3.1,22.9-13.4c-7.9,0-8.3-6.1-8.3-6.1v-3.2c3-1.2,6.2-2.6,9.5-4.1c9.9-4.5,8.9-14.5,8.9-14.5v-1.8
			C94,85.8,96.7,82.8,96.7,77.4z M54.8,96.9c0.2-0.8,1.1-1.3,1.9-1c0.1,0,7.1,2,10.8-2.5c0.5-0.7,1.5-0.8,2.2-0.2
			c0.7,0.5,0.8,1.5,0.2,2.2c-2.1,2.5-5.2,4-9,4.1c-0.2,0-0.3,0-0.5,0c-2.5,0-4.5-0.6-4.6-0.6C55,98.6,54.5,97.7,54.8,96.9z
			 M32.2,78.1c0-3.9,3.2-7.1,7.1-7.1c3.9,0,7.1,3.2,7.1,7.1c0,3.9-3.2,7.1-7.1,7.1C35.3,85.2,32.2,82,32.2,78.1z M75.5,85.2
			c-3.9,0-7.1-3.2-7.1-7.1c0-3.9,3.2-7.1,7.1-7.1c3.9,0,7.1,3.2,7.1,7.1C82.6,82,79.4,85.2,75.5,85.2z"/>
	</g>
	<path class="st1" d="M72,106.9c0,0-5,1.3-8.9,1.7c8.9,1.5,14.3,0,14.3,0L72,106.9z"/>
	<g>
		<path class="st2" d="M40.1,65.8c-0.6-0.3-1.3-0.4-2-0.4c-0.7,0-1.4,0.1-2,0.3c-0.6,0.2-1.2,0.6-1.8,1c-0.5,0.4-1,0.9-1.3,1.5
			c-0.1,0.1-0.1,0.3,0,0.4c0.1,0.2,0.3,0.2,0.5,0.1l0,0c0.5-0.3,1-0.7,1.5-0.9c0.5-0.3,1-0.5,1.5-0.7c0.5-0.2,1.1-0.3,1.6-0.4
			c0.6-0.1,1.1-0.1,1.7-0.1l0,0c0.1,0,0.3-0.1,0.3-0.2C40.3,66.1,40.3,65.8,40.1,65.8z"/>
		<path class="st2" d="M82,68.2c-0.3-0.6-0.8-1.1-1.3-1.5c-0.5-0.4-1.1-0.8-1.8-1c-0.6-0.2-1.3-0.4-2-0.3c-0.7,0-1.4,0.2-2,0.4
			c-0.1,0.1-0.2,0.2-0.2,0.3c0,0.2,0.2,0.4,0.4,0.4l0,0c0.6,0,1.2,0,1.7,0.1c0.6,0.1,1.1,0.2,1.6,0.4c0.5,0.2,1,0.4,1.5,0.7
			c0.5,0.3,1,0.6,1.5,0.9l0,0c0.1,0.1,0.3,0.1,0.4,0C82.1,68.6,82.1,68.4,82,68.2z"/>
	</g>
</g>
</svg>
