<?xml version="1.0" encoding="utf-8"?>
<!-- Generator: Adobe Illustrator 21.0.0, SVG Export Plug-In . SVG Version: 6.00 Build 0)  -->
<svg version="1.1" id="Layer_1" xmlns="http://www.w3.org/2000/svg" xmlns:xlink="http://www.w3.org/1999/xlink" x="0px" y="0px"
	 viewBox="0 0 114.9 155.6" style="enable-background:new 0 0 114.9 155.6;" xml:space="preserve">
<style type="text/css">
	.st0{fill:#4EA4A1;}
	.st1{fill:#226D67;}
	.st2{fill:#6AC5C6;}
</style>
<g>
	<title>Ativo 8</title>
	<g>
		<g>
			<polygon class="st0" points="57.5,153 1.9,77.8 57.4,2.6 113,77.8 			"/>
			<path class="st1" d="M12.2,91.8c4.9-2.1,4.8-5.3,4.8-5.3c0.3,3.8,0,7.3-0.9,10.6l7.4,10c1.5-0.7,2.7-1.6,3.8-2.6
				c-0.3,2.3-0.8,4.2-1.4,5.8l2.8,3.8c3.7-1.1,6.4-2.7,6.4-2.7s1.3,4.3,2.2,7.7c13.1,1.9,27.3,1.9,40.3,0c0.9-3.4,2.2-7.7,2.2-7.7
				s2.6,1.7,6.4,2.7l2.8-3.8c-0.6-1.6-1.1-3.5-1.4-5.8c1.1,1,2.3,1.9,3.8,2.6l7.4-10c-0.9-3.2-1.2-6.8-0.9-10.6c0,0,0,3.2,4.8,5.3
				l1.1-1.5c-3.2-5.3-3.7-14.7-4.7-30.2c-1.5-23.2-5.5-27.1-21.4-32.2c-9.7-3.1-30.9-3.1-40.6,0c-15.9,5.1-19.9,9-21.4,32.2
				c-1,15.5-1.5,24.9-4.7,30.2L12.2,91.8z"/>
			<path class="st1" d="M57.5,153l26.7-36.1c-1.3-0.4-2.7-0.8-4.1-1.1c-7,4.2-39,4.7-45.2,0c-1.4,0.3-2.7,0.7-4,1.1L57.5,153z"/>
			<g>
				<circle class="st2" cx="77.2" cy="76" r="2.7"/>
				<circle class="st2" cx="41.4" cy="76" r="2.7"/>
				<path class="st2" d="M96.3,77.5c0-3.6-2.7-5.2-6.2-5.5V57.3c0-3.4-3.8-5.9-10-7.4c-7.3-1.2-13.4,0-17.4,4.4
					C54.8,63,41.4,61.5,32.6,57c7.9-0.8,9.2-5.3,12.3-8.7c-11.8,1.1-20,4-20,9v14.7c-3.6,0.3-6.2,2-6.2,5.5c0,5.3,2.7,8.3,6.2,8.9
					v1.8c0,0-1,9.9,8.8,14.3c3.3,1.5,6.5,2.9,9.4,4.1v3.2c0,0-0.4,6-8.2,6c0,10.1,14,13.2,22.6,13.2c8.6,0,22.6-3.1,22.6-13.2
					c-7.8,0-8.2-6-8.2-6v-3.2c2.9-1.2,6.1-2.6,9.4-4.1c9.8-4.4,8.8-14.3,8.8-14.3v-1.8C93.6,85.8,96.3,82.8,96.3,77.5z M39.6,85.2
					c-3.9,0-7-3.1-7-7c0-0.5,0-0.9,0.1-1.4c-1-0.7-1.5-2.6-1.3-3.5c0.3,0.4,1.2,1,2.3,1.1c-0.6-0.3-1-1.8-0.8-3.2
					c0.4,0.9,2.3,1.5,2.3,1.5c1.2-1,2.7-1.5,4.4-1.5c3.9,0,7,3.1,7,7C46.6,82,43.4,85.2,39.6,85.2z M70.9,95.2
					c-2.1,2.5-5.2,3.9-8.9,4c-0.2,0-0.3,0-0.5,0c-2.5,0-4.4-0.6-4.5-0.6c-0.8-0.2-1.3-1.1-1-1.9c0.2-0.8,1.1-1.3,1.9-1
					c0.1,0,7,2,10.6-2.4c0.5-0.7,1.5-0.7,2.2-0.2C71.3,93.6,71.4,94.6,70.9,95.2z M82.2,76.8c0.1,0.4,0.1,0.9,0.1,1.4
					c0,3.9-3.1,7-7,7s-7-3.1-7-7c0-3.9,3.1-7,7-7c1.7,0,3.2,0.6,4.4,1.5c0,0,1.9-0.6,2.3-1.5c0.2,1.4-0.2,2.9-0.8,3.2
					c1.1-0.1,2-0.7,2.3-1.1C83.7,74.2,83.2,76.1,82.2,76.8z"/>
			</g>
			<g>
				<path class="st1" d="M39.9,66.4c-0.6-0.3-1.3-0.4-2-0.4c-0.7,0-1.4,0.1-2,0.4c-0.6,0.2-1.3,0.6-1.8,1c-0.5,0.4-1,0.9-1.3,1.5
					c-0.1,0.1-0.1,0.3,0,0.4c0.1,0.2,0.3,0.2,0.5,0.1l0,0c0.5-0.3,1-0.7,1.5-1c0.5-0.3,1-0.5,1.5-0.7c0.5-0.2,1.1-0.3,1.6-0.4
					c0.6-0.1,1.1-0.1,1.7-0.1l0,0c0.1,0,0.3-0.1,0.3-0.2C40.2,66.7,40.1,66.5,39.9,66.4z"/>
				<path class="st1" d="M82.1,68.9c-0.3-0.6-0.8-1.1-1.3-1.5c-0.5-0.4-1.1-0.8-1.8-1c-0.6-0.2-1.3-0.4-2-0.4c-0.7,0-1.4,0.2-2,0.4
					c-0.1,0.1-0.2,0.2-0.2,0.3c0,0.2,0.2,0.4,0.4,0.4l0,0c0.6,0,1.2,0,1.7,0.1c0.6,0.1,1.1,0.2,1.6,0.4c0.5,0.2,1,0.4,1.5,0.7
					c0.5,0.3,1,0.6,1.5,1l0,0c0.1,0.1,0.3,0.1,0.4,0C82.2,69.3,82.2,69.1,82.1,68.9z"/>
			</g>
		</g>
		<path class="st1" d="M71.9,106.6c0,0-5,1.3-8.7,1.7c8.7,1.5,14.1,0,14.1,0L71.9,106.6z"/>
	</g>
</g>
</svg>
