<svg xmlns="http://www.w3.org/2000/svg" viewBox="0 0 219.93 132.65"><defs><style>.cls-1{fill:#e2024b;}.cls-2{font-size:9.61px;font-family:OpenSans-SemiBold, Open Sans;font-weight:700;letter-spacing:-0.04em;}.cls-2,.cls-5{fill:#fff;}.cls-3{letter-spacing:-0.04em;}.cls-4{fill:#991347;}.cls-6{fill:#811340;}.cls-7{fill:#008a8e;}.cls-8{fill:#4fa5a2;}.cls-9{fill:#e73478;}.cls-10{fill:#82cdcd;}</style></defs><title>Ativo 9</title><g id="Camada_2" data-name="Camada 2"><g id="Layer_1" data-name="Layer 1"><rect class="cls-1" x="42.56" y="58.61" width="134.8" height="74.04"/><text class="cls-2" transform="translate(57.12 91.33)">NAVEGUE PELO CAMPUS<tspan class="cls-3"><tspan x="0.81" y="13.45">E ACESSE AS ATIVIDADES</tspan></tspan></text><text class="cls-2" transform="translate(107.53 117.76)">:)</text><path class="cls-4" d="M119,67.47c5.27,2.53,5.63,8.73-9.07,8.73S95.63,70,100.9,67.47a20.75,20.75,0,0,1,9.07-1.6A20.75,20.75,0,0,1,119,67.47Z"/><polygon class="cls-5" points="109.97 0 87.31 35.15 109.97 70.3 132.62 35.14 109.97 0"/><polygon class="cls-4" points="109.97 64.5 128.81 35.15 109.97 5.79 91.12 35.15 109.97 64.5"/><polygon class="cls-6" points="128.81 35.15 109.97 41.77 109.97 5.79 128.81 35.15"/><polygon class="cls-7" points="109.97 41.77 109.97 64.5 128.81 35.15 109.97 41.77"/><polygon class="cls-8" points="109.97 41.77 91.12 35.15 109.97 64.5 109.97 41.77"/><polygon class="cls-9" points="107.92 11.07 97.7 37.46 92.68 35.7 107.92 11.07"/><polygon class="cls-10" points="105.3 56 92.68 35.7 97.7 37.46 105.3 56"/><polygon class="cls-1" points="209.78 59.58 209.78 66.09 213.42 69.73 209.78 73.36 209.78 79.88 216.68 72.98 219.93 69.73 216.68 66.47 216.68 66.47 209.78 59.58"/><polygon class="cls-1" points="10.15 79.88 10.15 73.36 6.51 69.73 10.15 66.09 10.15 59.58 3.26 66.47 0 69.73 3.26 72.98 3.26 72.98 10.15 79.88"/></g></g></svg>