<svg xmlns="http://www.w3.org/2000/svg" xmlns:xlink="http://www.w3.org/1999/xlink" viewBox="0 0 320 50"><defs><style>.cls-1{fill:none;}.cls-2{clip-path:url(#clip-path);}.cls-3{fill:#1b1819;}.cls-4{fill:#e2024b;}.cls-5{fill:#fff;}.cls-6{fill:#6ac5c6;}.cls-7{fill:#4fa5a2;}.cls-8{fill:#811340;}.cls-9{fill:#e73478;}.cls-10{fill:#82cdcd;}</style><clipPath id="clip-path"><rect class="cls-1" width="320" height="50"/></clipPath></defs><title>Ativo 6</title><g id="Camada_2" data-name="Camada 2"><g id="Layer_1" data-name="Layer 1"><g class="cls-2"><rect class="cls-3" width="320" height="50"/><circle class="cls-4" cx="8.7" cy="39.89" r="2"/><circle class="cls-4" cx="8.7" cy="32.02" r="2"/><circle class="cls-4" cx="8.7" cy="24.15" r="2"/><circle class="cls-4" cx="16.57" cy="16.28" r="2"/><circle class="cls-4" cx="16.57" cy="8.41" r="2"/><circle class="cls-4" cx="16.57" cy="39.89" r="2"/><circle class="cls-4" cx="24.44" cy="39.89" r="2"/><circle class="cls-4" cx="32.31" cy="39.89" r="2"/><circle class="cls-4" cx="40.18" cy="39.89" r="2"/><circle class="cls-4" cx="16.57" cy="32.02" r="2"/><circle class="cls-4" cx="24.44" cy="32.02" r="2"/><circle class="cls-4" cx="32.31" cy="32.02" r="2"/><circle class="cls-4" cx="40.18" cy="32.02" r="2"/><circle class="cls-4" cx="16.57" cy="24.15" r="2"/><circle class="cls-4" cx="24.44" cy="24.15" r="2"/><circle class="cls-4" cx="32.31" cy="24.15" r="2"/><circle class="cls-4" cx="40.18" cy="24.15" r="2"/><circle class="cls-4" cx="24.44" cy="16.28" r="2"/><circle class="cls-4" cx="32.31" cy="16.28" r="2"/><circle class="cls-4" cx="40.18" cy="16.28" r="2"/><circle class="cls-4" cx="48.05" cy="16.28" r="2"/><circle class="cls-4" cx="24.44" cy="8.41" r="2"/><circle class="cls-4" cx="32.31" cy="8.41" r="2"/><circle class="cls-4" cx="40.18" cy="8.41" r="2"/><circle class="cls-4" cx="48.05" cy="8.41" r="2"/><rect class="cls-5" x="238.08" y="8.94" width="0.98" height="11.43" transform="translate(417.63 -143.69) rotate(135)"/><rect class="cls-5" x="238.08" y="8.94" width="0.98" height="11.43" transform="translate(80.23 -164.41) rotate(45)"/><rect class="cls-5" x="238.08" y="25.99" width="0.98" height="11.43" transform="translate(429.69 -114.57) rotate(135)"/><rect class="cls-5" x="238.08" y="25.99" width="0.98" height="11.43" transform="translate(92.3 -159.41) rotate(45)"/><rect class="cls-5" x="255.86" y="8.21" width="0.98" height="11.43" transform="translate(447.47 -157.5) rotate(135)"/><rect class="cls-5" x="255.86" y="8.21" width="0.98" height="11.43" transform="translate(84.93 -177.19) rotate(45)"/></g><path class="cls-6" d="M306,16.52l-19.7,19.7q.54-1.34,1.2-2.61l15.88-15.89Z"/><path class="cls-6" d="M310,15.14,285,40.23c-.17.62-.33,1.25-.46,1.88l27.43-27.44Z"/><path class="cls-6" d="M316.7,13.94,283.77,46.87c0-.53.09-1.05.16-1.57l31.19-31.19C315.64,14,316.17,14,316.7,13.94Z"/><polygon class="cls-6" points="308.9 50 320 38.9 320 37.48 307.48 50 308.9 50"/><polygon class="cls-6" points="316.97 50 320 46.97 320 45.56 315.56 50 316.97 50"/><polygon class="cls-6" points="312.93 50 320 42.93 320 41.52 311.52 50 312.93 50"/><polygon class="cls-6" points="320 50 320 49.59 319.59 50 320 50"/><polygon class="cls-6" points="292.75 50 320 22.75 320 21.33 291.33 50 292.75 50"/><polygon class="cls-6" points="296.78 50 320 26.78 320 25.37 295.37 50 296.78 50"/><polygon class="cls-6" points="300.82 50 320 30.82 320 29.41 299.41 50 300.82 50"/><polygon class="cls-6" points="304.86 50 320 34.86 320 33.44 303.44 50 304.86 50"/><polygon class="cls-6" points="288.71 50 320 18.71 320 17.29 287.29 50 288.71 50"/><polygon class="cls-6" points="284.67 50 320 14.67 320 13.8 319.46 13.79 283.63 49.63 283.63 49.99 283.63 50 284.67 50"/><g class="cls-2"><rect class="cls-3" width="320" height="50"/><circle class="cls-4" cx="8.7" cy="39.89" r="2"/><circle class="cls-4" cx="8.7" cy="32.02" r="2"/><circle class="cls-4" cx="8.7" cy="24.15" r="2"/><circle class="cls-4" cx="16.57" cy="16.28" r="2"/><circle class="cls-4" cx="16.57" cy="8.41" r="2"/><circle class="cls-4" cx="16.57" cy="39.89" r="2"/><circle class="cls-4" cx="24.44" cy="39.89" r="2"/><circle class="cls-4" cx="32.31" cy="39.89" r="2"/><circle class="cls-4" cx="40.18" cy="39.89" r="2"/><circle class="cls-4" cx="16.57" cy="32.02" r="2"/><circle class="cls-4" cx="24.44" cy="32.02" r="2"/><circle class="cls-4" cx="32.31" cy="32.02" r="2"/><circle class="cls-4" cx="40.18" cy="32.02" r="2"/><circle class="cls-4" cx="16.57" cy="24.15" r="2"/><circle class="cls-4" cx="24.44" cy="24.15" r="2"/><circle class="cls-4" cx="32.31" cy="24.15" r="2"/><circle class="cls-4" cx="40.18" cy="24.15" r="2"/><circle class="cls-4" cx="24.44" cy="16.28" r="2"/><circle class="cls-4" cx="32.31" cy="16.28" r="2"/><circle class="cls-4" cx="40.18" cy="16.28" r="2"/><circle class="cls-4" cx="48.05" cy="16.28" r="2"/><circle class="cls-4" cx="24.44" cy="8.41" r="2"/><circle class="cls-4" cx="32.31" cy="8.41" r="2"/><circle class="cls-4" cx="40.18" cy="8.41" r="2"/><circle class="cls-4" cx="48.05" cy="8.41" r="2"/><rect class="cls-5" x="238.08" y="8.94" width="0.98" height="11.43" transform="translate(417.63 -143.69) rotate(135)"/><rect class="cls-5" x="238.08" y="8.94" width="0.98" height="11.43" transform="translate(80.23 -164.41) rotate(45)"/><rect class="cls-5" x="238.08" y="25.99" width="0.98" height="11.43" transform="translate(429.69 -114.57) rotate(135)"/><rect class="cls-5" x="238.08" y="25.99" width="0.98" height="11.43" transform="translate(92.3 -159.41) rotate(45)"/><rect class="cls-5" x="255.86" y="8.21" width="0.98" height="11.43" transform="translate(447.47 -157.5) rotate(135)"/><rect class="cls-5" x="255.86" y="8.21" width="0.98" height="11.43" transform="translate(84.93 -177.19) rotate(45)"/></g><path class="cls-6" d="M306,16.52l-19.7,19.7q.54-1.34,1.2-2.61l15.88-15.89Z"/><path class="cls-6" d="M310,15.14,285,40.23c-.17.62-.33,1.25-.46,1.88l27.43-27.44Z"/><path class="cls-6" d="M316.7,13.94,283.77,46.87c0-.53.09-1.05.16-1.57l31.19-31.19C315.64,14,316.17,14,316.7,13.94Z"/><polygon class="cls-6" points="185.22 40.45 183.25 40.45 178.73 25 180.69 25 185.22 40.45"/><polygon class="cls-7" points="179.79 25 183.97 39.61 185.22 40.45 180.69 25 179.79 25"/><polygon class="cls-6" points="164.13 40.46 163.99 38.76 157.32 38.76 153.53 40.46 164.13 40.46"/><polygon class="cls-4" points="174.61 40.45 176.08 38.75 182.75 38.75 185.22 40.45 174.61 40.45"/><polygon class="cls-8" points="183.97 39.61 175.34 39.61 174.61 40.45 185.22 40.45 183.97 39.61"/><polygon class="cls-7" points="164.06 39.6 155.44 39.6 153.53 40.46 164.13 40.46 164.06 39.6"/><polygon class="cls-4" points="172.06 25 170.09 25 153.53 40.46 157.32 38.76 172.06 25"/><polygon class="cls-4" points="172.36 32.78 173.49 29.89 163.99 38.76 164.13 40.46 172.36 32.78"/><polygon class="cls-6" points="172.36 32.78 173.49 29.89 176.08 38.75 174.61 40.45 172.36 32.78"/><polygon class="cls-4" points="178.73 25 180.69 25 197.25 9.54 193.46 11.25 178.73 25"/><polygon class="cls-4" points="178.42 17.23 177.29 20.11 186.79 11.25 186.65 9.55 178.42 17.23"/><polygon class="cls-6" points="172.06 25 170.09 25 165.56 9.55 168.03 11.26 172.06 25"/><polygon class="cls-4" points="176.17 9.55 174.7 11.25 168.03 11.26 165.56 9.55 176.17 9.55"/><polygon class="cls-6" points="178.42 17.23 177.29 20.11 174.7 11.25 176.17 9.55 178.42 17.23"/><polygon class="cls-6" points="186.65 9.55 186.79 11.25 193.46 11.25 197.25 9.54 186.65 9.55"/><path class="cls-5" d="M148.15,21.14v-.05a9.19,9.19,0,0,1,9.54-9.21,10.33,10.33,0,0,1,7.18,2.58L162,17.93a6.25,6.25,0,0,0-4.27-1.67,4.65,4.65,0,0,0-4.53,4.86v.05A4.68,4.68,0,0,0,158,26.07a5,5,0,0,0,2.83-.73V23.19h-3.49V19.6h8.14v8a12,12,0,0,1-7.69,2.73C152.27,30.3,148.15,26.5,148.15,21.14Z"/><polygon class="cls-7" points="186.5 35.41 196.81 25.41 194.28 15.42 183.97 25.42 186.5 35.41"/><polygon class="cls-4" points="183.97 25.42 190 23.05 194.28 15.42 183.97 25.42"/><polygon class="cls-8" points="190 23.05 194.28 15.42 196.81 25.41 190 23.05"/><polygon class="cls-6" points="190 23.05 186.5 35.41 183.97 25.42 190 23.05"/><polygon class="cls-5" points="122.75 18.26 122.75 29.94 127.65 29.94 127.65 23.62 136.03 23.62 136.03 19.55 127.65 19.55 127.65 16.54 136.91 16.54 136.91 12.24 129.2 12.24 122.75 18.26"/><polygon class="cls-9" points="194.28 15.42 187.39 24.07 190 23.05 194.28 15.42"/><polygon class="cls-10" points="187.39 24.07 186.5 35.41 190 23.05 187.39 24.07"/><polygon class="cls-5" points="144.73 12.24 139.89 12.24 132.41 29.94 137.57 29.94 138.83 26.78 145.66 26.78 146.95 29.94 152.21 29.94 144.73 12.24"/><polygon class="cls-8" points="177.98 18.35 186.71 10.34 186.79 11.25 177.29 20.11 177.98 18.35"/><polygon class="cls-7" points="186.71 10.34 195.35 10.4 193.46 11.25 186.79 11.25 186.71 10.34"/><polygon class="cls-8" points="195.35 10.4 179.79 25 180.69 25 197.25 9.54 195.35 10.4"/><polygon class="cls-7" points="175.34 39.61 172.97 31.22 173.49 29.89 176.08 38.75 175.34 39.61"/><polygon class="cls-8" points="164.06 39.6 172.97 31.22 172.36 32.78 164.13 40.46 164.06 39.6"/><polygon class="cls-8" points="155.44 39.6 170.99 25 172.06 25 157.32 38.76 155.44 39.6"/><polygon class="cls-7" points="170.99 25 166.78 10.4 168.03 11.26 172.06 25 170.99 25"/><polygon class="cls-8" points="166.78 10.4 175.44 10.4 174.7 11.25 168.03 11.26 166.78 10.4"/><polygon class="cls-7" points="175.44 10.4 177.98 18.35 178.42 17.23 176.17 9.55 175.44 10.4"/><polygon class="cls-6" points="308.9 50 320 38.9 320 37.48 307.48 50 308.9 50"/><polygon class="cls-6" points="316.97 50 320 46.97 320 45.56 315.56 50 316.97 50"/><polygon class="cls-6" points="312.93 50 320 42.93 320 41.52 311.52 50 312.93 50"/><polygon class="cls-6" points="320 50 320 49.59 319.59 50 320 50"/><polygon class="cls-6" points="292.75 50 320 22.75 320 21.33 291.33 50 292.75 50"/><polygon class="cls-6" points="296.78 50 320 26.78 320 25.37 295.37 50 296.78 50"/><polygon class="cls-6" points="300.82 50 320 30.82 320 29.41 299.41 50 300.82 50"/><polygon class="cls-6" points="304.86 50 320 34.86 320 33.44 303.44 50 304.86 50"/><polygon class="cls-6" points="288.71 50 320 18.71 320 17.29 287.29 50 288.71 50"/><polygon class="cls-6" points="284.67 50 320 14.67 320 13.8 319.46 13.79 283.63 49.63 283.63 49.99 283.63 50 284.67 50"/></g></g></svg>