<svg xmlns="http://www.w3.org/2000/svg" viewBox="0 0 46.45 46.45"><defs><style>.cls-1{fill:#fff;}.cls-2{fill:none;}</style></defs><title>Ativo 3</title><g id="Camada_2" data-name="Camada 2"><g id="Layer_1" data-name="Layer 1"><path class="cls-1" d="M38.56,7.89A21.69,21.69,0,1,0,7.89,38.56,21.69,21.69,0,1,0,38.56,7.89Zm-2,28.69q-.38.38-.79.74c-.51-3.52-3.17-6.39-5.89-8.23a11.75,11.75,0,0,1-13.36,0,13.94,13.94,0,0,0-5.88,8.24q-.41-.36-.79-.75A18.89,18.89,0,0,1,36.58,9.87a18.89,18.89,0,0,1,0,26.71Z"/><circle class="cls-1" cx="23.22" cy="19.43" r="9.48"/><rect class="cls-2" width="46.45" height="46.45"/></g></g></svg>