<svg xmlns="http://www.w3.org/2000/svg" viewBox="0 0 46.45 46.45"><defs><style>.cls-1{fill:none;}.cls-2{fill:#fff;}</style></defs><title>Ativo 1</title><g id="Camada_2" data-name="Camada 2"><g id="Layer_1" data-name="Layer 1"><rect class="cls-1" width="46.45" height="46.45"/><path class="cls-2" d="M38.56,7.89A21.69,21.69,0,1,0,7.89,38.56,21.69,21.69,0,1,0,38.56,7.89ZM36.64,36.64A19,19,0,0,1,4.5,26.33a6.43,6.43,0,0,1,1.92-3.44c.42-.43,0-1.71-2-2.35a18.77,18.77,0,0,1,2.35-6.8c2.33.37,5-2.25,5.64-4.2.84-.64.35-1.14-.53-1.54A19,19,0,0,1,31.41,6.1c-.1,1.52-2,1.32-3,.14a4,4,0,0,0-1.81.4c-2,.87-4.32,2.87-3.49,3.8,1.47-1,3.14-.63,2,1.33-1.63,2.55-3-1-4.68.08.81.7-2.18,1.75-3.06,1.8-1.8-.29,1.53,1.31.27,1.87-3.69.61,1.82,2.63,1.91-.36,3.43-1.89,3.54,4.1,7.11,3.27-1-1.44.21-3.13,2-3.34,3.34.92-2.21,2.55.23,3-.26,1.36-3.42,1.74-4.57,3-3.73-.1-5.15-5.52-9.12-3-2.72.58-4.24,4.36-3.5,6.89,1.23,3.54,3.95,3.83,7.12,4,2.92,1.51,2.18,6.91,3.3,10,1.66,1.54,6.48,5.22,6.41.57-.53-3.19,3.55-9.35,5.09-12.13,2.41-4-2.42.42-3.52-1.46-.71-4.17,3.48-.47,5.34-1.73,1.77,1.09,4.59-.87,4.94,2.2.34,1.88.88,1.57,1.45.73A18.85,18.85,0,0,1,36.64,36.64Z"/></g></g></svg>