<svg xmlns="http://www.w3.org/2000/svg" viewBox="0 0 46.45 46.45"><defs><style>.cls-1{fill:#fff;}.cls-2{fill:none;}</style></defs><title>Ativo 4</title><g id="Camada_2" data-name="Camada 2"><g id="Layer_1" data-name="Layer 1"><path class="cls-1" d="M33,14.61H29.9l-.71-1.89a2.58,2.58,0,0,0-1-1.18A2.48,2.48,0,0,0,26.79,11H19.66a2.48,2.48,0,0,0-1.44.49,2.58,2.58,0,0,0-1,1.18l-.71,1.89H13.43a3.56,3.56,0,0,0-3.56,3.56V30.64a3.56,3.56,0,0,0,3.56,3.56H33a3.56,3.56,0,0,0,3.56-3.56V18.17A3.56,3.56,0,0,0,33,14.61Zm-5.39,14.2a6.21,6.21,0,0,1-8.81,0,6.21,6.21,0,0,1,0-8.81,6.21,6.21,0,0,1,8.81,0,6.21,6.21,0,0,1,0,8.81Z"/><path class="cls-1" d="M23.22,20.4a4,4,0,0,0-2.83,6.84,4,4,0,1,0,5.66-5.66A3.86,3.86,0,0,0,23.22,20.4Z"/><path class="cls-1" d="M38.56,7.89A21.69,21.69,0,1,0,7.89,38.56,21.69,21.69,0,1,0,38.56,7.89Zm-2,28.69A18.89,18.89,0,1,1,9.87,9.87,18.89,18.89,0,1,1,36.58,36.58Z"/><rect class="cls-2" width="46.45" height="46.45"/></g></g></svg>