<svg xmlns="http://www.w3.org/2000/svg" viewBox="0 0 94.94 94.94"><defs><style>.cls-1{fill:#4fa5a2;}.cls-2{fill:#77c8c5;}.cls-3{fill:#216662;}.cls-4{fill:#fff;}</style></defs><title>Ativo 9</title><g id="Camada_2" data-name="Camada 2"><g id="Layer_1" data-name="Layer 1"><path class="cls-1" d="M94.94,5.67V89.26a5.67,5.67,0,0,1-5.67,5.68H5.67A5.67,5.67,0,0,1,0,89.26V5.67A5.67,5.67,0,0,1,5.67,0h83.6A5.67,5.67,0,0,1,94.94,5.67Z"/><path class="cls-2" d="M2.26,7.2A5.05,5.05,0,0,1,7.31,2.15h86.4A5.66,5.66,0,0,0,89.27,0H5.67A5.67,5.67,0,0,0,0,5.67V89.26a5.67,5.67,0,0,0,2.26,4.53Z"/><path class="cls-3" d="M94.94,28.7V89.26a5.67,5.67,0,0,1-5.67,5.68H52.05L33,76.3l2.54-4.09L19.7,46.36,26,42l4,1.91C34.49,47.51,41.42,61.4,41.42,61.4s11.63-22.27,30.43-35c1.4-1,2.3-3.5,4.39-5.23a30.08,30.08,0,0,1,7-4Z"/><path class="cls-4" d="M26,42,15.67,44.45S33.53,68.76,33,76.3h8.65S54.74,36.66,83.21,17.13C55.58,24.66,37.38,59.49,37.38,59.49S30.46,45.6,26,42Z"/></g></g></svg>