<svg xmlns="http://www.w3.org/2000/svg" viewBox="0 0 94.94 94.94"><defs><style>.cls-1,.cls-4{fill:#606060;}.cls-2{fill:#4c4c4c;}.cls-3{fill:#727272;}.cls-4{font-size:45.18px;font-family:OpenSans-ExtraBold, Open Sans;font-weight:700;letter-spacing:-0.01em;}</style></defs><title>Ativo 8</title><g id="Camada_2" data-name="Camada 2"><g id="Layer_1" data-name="Layer 1"><path class="cls-1" d="M94.94,5.67V89.26a5.67,5.67,0,0,1-5.67,5.68H5.67A5.67,5.67,0,0,1,0,89.26V5.67A5.67,5.67,0,0,1,5.67,0h83.6A5.67,5.67,0,0,1,94.94,5.67Z"/><path class="cls-2" d="M94.94,51.76v37.5a5.67,5.67,0,0,1-5.67,5.68H49.88l-19.11-19,6.8-6.56L16,47.79l34.78-4.13,4.27,8.79,20.64-20Z"/><path class="cls-3" d="M44.84,17.37l8.45,11.29A4.42,4.42,0,0,0,57,30.43l14.09-.56a4.42,4.42,0,0,1,3.79,7L66.76,48.36a4.42,4.42,0,0,0-.53,4.08l4.88,13.23a4.42,4.42,0,0,1-5.46,5.76L52.18,67.26a4.42,4.42,0,0,0-4,.75L37.06,76.75a4.42,4.42,0,0,1-7.16-3.41l-.2-14.1a4.42,4.42,0,0,0-2-3.62L16,47.79a4.42,4.42,0,0,1,1-7.87l13.35-4.54a4.42,4.42,0,0,0,2.83-3L37,18.82A4.42,4.42,0,0,1,44.84,17.37Z"/><path class="cls-1" d="M82.07,39.39A4.94,4.94,0,0,0,81,32.6a5,5,0,0,1-.9,3.56L70.73,49.48a5.11,5.11,0,0,0-.62,4.72l5.64,15.28a5.11,5.11,0,0,1-6.31,6.65L53.89,71.31a5.11,5.11,0,0,0-4.68.87L36.42,82.27a5,5,0,0,1-3.36,1.1,4.94,4.94,0,0,0,6.76.59l12.37-9.75a4.94,4.94,0,0,1,4.52-.84l15,4.66a4.94,4.94,0,0,0,6.1-6.43L72.39,56.82a4.94,4.94,0,0,1,.6-4.56Z"/><text class="cls-4" transform="translate(32.01 64)">1</text><path class="cls-3" d="M2.26,7.2A5.05,5.05,0,0,1,7.31,2.15h86.4A5.66,5.66,0,0,0,89.27,0H5.67A5.67,5.67,0,0,0,0,5.67V89.26a5.67,5.67,0,0,0,2.26,4.53Z"/></g></g></svg>