<svg xmlns="http://www.w3.org/2000/svg" viewBox="0 0 44.4 44.4"><defs><style>.cls-1{fill:#fff;}</style></defs><title>Ativo 5</title><g id="Camada_2" data-name="Camada 2"><g id="Layer_1" data-name="Layer 1"><path class="cls-1" d="M18.3,18.3H2.6V2.6H18.3V18.3ZM19.6,0H1.3A1.3,1.3,0,0,0,0,1.3V19.6a1.3,1.3,0,0,0,1.3,1.3H19.6a1.3,1.3,0,0,0,1.3-1.3V1.3A1.3,1.3,0,0,0,19.6,0Z"/><path class="cls-1" d="M41.8,18.3H26.1V2.6H41.8V18.3ZM43.1,0H24.8a1.3,1.3,0,0,0-1.3,1.3V19.6a1.3,1.3,0,0,0,1.3,1.3H43.1a1.3,1.3,0,0,0,1.3-1.3V1.3A1.3,1.3,0,0,0,43.1,0Z"/><path class="cls-1" d="M31.3,7.89h5.2v5.2H31.3V7.89ZM30,15.7h7.8a1.3,1.3,0,0,0,1.3-1.3V6.59a1.3,1.3,0,0,0-1.3-1.3H30a1.3,1.3,0,0,0-1.3,1.3v7.8A1.3,1.3,0,0,0,30,15.7Z"/><path class="cls-1" d="M7.89,7.89h5.2v5.2H7.89V7.89Zm-1.3,7.8h7.8a1.3,1.3,0,0,0,1.3-1.3V6.59a1.3,1.3,0,0,0-1.3-1.3H6.59a1.3,1.3,0,0,0-1.3,1.3v7.8a1.3,1.3,0,0,0,1.3,1.3Z"/><path class="cls-1" d="M7.89,31.3h5.2v5.2H7.89V31.3Zm-1.3,7.8h7.8a1.3,1.3,0,0,0,1.3-1.3V30a1.3,1.3,0,0,0-1.3-1.3H6.59A1.3,1.3,0,0,0,5.29,30v7.8a1.3,1.3,0,0,0,1.3,1.3Z"/><path class="cls-1" d="M18.3,41.8H2.6V26.1H18.3V41.8Zm1.3-18.3H1.3A1.3,1.3,0,0,0,0,24.8V43.1a1.3,1.3,0,0,0,1.3,1.3H19.6a1.3,1.3,0,0,0,1.3-1.3V24.8a1.3,1.3,0,0,0-1.3-1.3Z"/><path class="cls-1" d="M43.1,31.3a1.3,1.3,0,0,0-1.3,1.3v3.9H35.21a1.3,1.3,0,0,0-1.3,1.3v4H26.1v-4a1.3,1.3,0,1,0-2.6,0V43.1a1.3,1.3,0,0,0,1.3,1.3H35.21a1.3,1.3,0,0,0,1.3-1.3v-4H43.1a1.3,1.3,0,0,0,1.3-1.3v-5.2a1.3,1.3,0,0,0-1.3-1.3Z"/><path class="cls-1" d="M24.8,33.91a1.3,1.3,0,0,0,1.3-1.3V26.1h5.2v1.3a1.3,1.3,0,1,0,2.6,0V24.8a1.3,1.3,0,0,0-1.3-1.3H24.8a1.3,1.3,0,0,0-1.3,1.3v7.8a1.3,1.3,0,0,0,1.3,1.3Z"/><path class="cls-1" d="M43.1,23.5H37.81a1.3,1.3,0,0,0-1.3,1.3v6.52H30a1.29,1.29,0,0,0-1.3,1.28h0v5.2a1.3,1.3,0,0,0,2.6,0v-3.9h6.5a1.3,1.3,0,0,0,1.3-1.3V26.1h4a1.3,1.3,0,1,0,0-2.6Z"/><path class="cls-1" d="M43.1,41.8H40.41a1.3,1.3,0,0,0,0,2.6H43.1a1.3,1.3,0,0,0,0-2.6Z"/></g></g></svg>