<?xml version="1.0" encoding="utf-8"?>
<!-- Generator: Adobe Illustrator 21.0.0, SVG Export Plug-In . SVG Version: 6.00 Build 0)  -->
<svg version="1.1" id="Layer_1" xmlns="http://www.w3.org/2000/svg" xmlns:xlink="http://www.w3.org/1999/xlink" x="0px" y="0px"
	 viewBox="0 0 114.9 155.6" style="enable-background:new 0 0 114.9 155.6;" xml:space="preserve">
<style type="text/css">
	.st0{fill:#606060;}
	.st1{fill:#FFFFFF;}
	.st2{fill:#4C4C4C;}
	.st3{fill:#7A7A7A;}
</style>
<g id="Layer_1_1_">
	<g>
		<polygon class="st0" points="0.5,77.8 57.4,0.9 114.2,77.8 57.4,154.7 		"/>
		<path class="st1" d="M57.4,1.7l56.2,76.1l-56.3,76.1L1.1,77.8L57.4,1.7 M57.4,0l-0.8,1.1L0.4,77.2L0,77.8l0.4,0.6l56.2,76.1
			l0.8,1.1l0.8-1.1l56.3-76.1l0.4-0.6l-0.4-0.6L58.2,1.1L57.4,0L57.4,0z"/>
	</g>
	<path class="st2" d="M99,40c0.1-3.5-4.8-3.3-4.8-3.3c2-1.4,2.7-5.4,2.7-5.4c-2.2,1.3-4.7,2-7.3,1.9C86.1,31.3,75.3,26,57.2,26
		c-22.9,0-29.7,6.5-39.7,5.4c0,0,0.7,4,2.7,5.4c-3.1,6.5-2.1,33,0.3,38.5c0,10.7,11.1,17.2,24.6,19.6c0.8,5.5,7.7,9.7,16,9.7
		c8.9,0,16.1-4.8,16.1-10.8c0-0.3,0-0.6-0.1-0.9c9.8-3.2,16.8-9.1,16.8-17.7c0,0-0.4-12.3,1.4-22.2c0.7-3.9,0.1-10.8-1.1-11.8
		C95.3,39.7,97.4,39.2,99,40z"/>
	<path class="st2" d="M57.4,153.9l27-36.5c-1.3-0.4-2.7-0.8-4.1-1.1c-7.1,4.2-39.5,4.8-45.8,0c-1.4,0.3-2.8,0.7-4.1,1.1L57.4,153.9z
		"/>
	<circle class="st3" cx="41" cy="76" r="2.8"/>
	<circle class="st3" cx="77.3" cy="76" r="2.8"/>
	<path class="st3" d="M96.5,77.5c0-3.6-2.7-5.3-6.3-5.6V57c0-6-11.7-9-27.2-9.6c-3.2,4.2-3.1,10-1.6,12.3c-8.6,0-10.7-5.4-11-9.9
		c-1.4,1.5-2.2,3.6-2.2,5.7c-4.4-2-5.3-4.9-4.9-7.5c-11.3,1.2-19,4.1-19,9v14.8c-3.6,0.3-6.3,2-6.3,5.6c0,5.4,2.7,8.4,6.3,9v1.8
		c-0.4,6.2,3.1,12.1,8.8,14.6c3.3,1.5,6.5,2.9,9.5,4.1v3.2c0,0-0.4,6.1-8.3,6.1c0,10.2,14.2,13.3,22.9,13.3s22.9-3.1,22.9-13.4
		c-7.9,0-8.3-6.1-8.3-6.1v-3.2c3-1.2,6.2-2.6,9.5-4.1c5.7-2.5,9.3-8.3,8.9-14.5v-1.8C93.8,85.9,96.5,82.9,96.5,77.5z M54.6,97
		c0.3-0.8,1.1-1.2,1.9-1c0.1,0,7.1,2,10.8-2.5c0.6-0.7,1.5-0.7,2.2-0.2c0.7,0.6,0.7,1.5,0.2,2.2c-2.3,2.6-5.5,4.1-9,4.1h-0.5
		c-1.5,0-3.1-0.2-4.6-0.6C54.8,98.7,54.4,97.9,54.6,97L54.6,97z M32,78.2c0-3.9,3.2-7.1,7.1-7.1c3.9,0,7.1,3.2,7.1,7.1
		s-3.2,7.1-7.1,7.1l0,0C35.2,85.3,32,82.1,32,78.2z M75.3,85.3c-3.9,0-7.1-3.2-7.1-7.1s3.2-7.1,7.1-7.1s7.1,3.2,7.1,7.1l0,0
		C82.4,82.1,79.3,85.3,75.3,85.3z"/>
	<path class="st0" d="M71.8,106.9c-2.9,0.7-5.9,1.3-8.8,1.7c8.8,1.5,14.3,0,14.3,0L71.8,106.9z"/>
	<path class="st2" d="M39.9,65.9c-0.6-0.3-1.3-0.4-2-0.4s-1.4,0.1-2,0.3c-0.6,0.2-1.2,0.6-1.8,1c-0.5,0.4-1,0.9-1.3,1.5
		c-0.1,0.2,0,0.4,0.2,0.5c0.1,0.1,0.3,0.1,0.4,0l0,0c0.5-0.3,1-0.7,1.5-0.9c0.5-0.3,1-0.5,1.5-0.7s1.1-0.4,1.6-0.4
		c0.6-0.1,1.2-0.1,1.7-0.1l0,0c0.2,0,0.4-0.2,0.4-0.4C40.1,66.1,40,65.9,39.9,65.9L39.9,65.9z"/>
	<path class="st2" d="M81.9,68.3c-0.3-0.6-0.8-1.1-1.3-1.5s-1.1-0.8-1.8-1c-0.6-0.2-1.3-0.4-2-0.3c-0.7,0-1.4,0.2-2,0.4
		c-0.2,0.1-0.3,0.3-0.2,0.5c0.1,0.1,0.2,0.2,0.3,0.2l0,0c0.6,0,1.2,0,1.7,0.1c0.6,0.1,1.1,0.2,1.6,0.4c0.5,0.2,1,0.4,1.5,0.7
		c0.5,0.3,1,0.6,1.5,0.9l0,0c0.2,0.1,0.4,0.1,0.5-0.1C81.8,68.6,81.8,68.4,81.9,68.3L81.9,68.3z"/>
</g>
</svg>
