<?xml version="1.0" encoding="utf-8"?>
<!-- Generator: Adobe Illustrator 21.0.0, SVG Export Plug-In . SVG Version: 6.00 Build 0)  -->
<svg version="1.1" id="Layer_1" xmlns="http://www.w3.org/2000/svg" xmlns:xlink="http://www.w3.org/1999/xlink" x="0px" y="0px"
	 viewBox="0 0 114.9 155.6" style="enable-background:new 0 0 114.9 155.6;" xml:space="preserve">
<style type="text/css">
	.st0{fill:#606060;}
	.st1{fill:#FFFFFF;}
	.st2{fill:#4C4C4C;}
	.st3{fill:#7A7A7A;}
</style>
<title>Ativo 8</title>
<g>
	<g>
		<polygon class="st0" points="0.5,77.8 57.4,0.9 114.3,77.8 57.4,154.7 		"/>
		<path class="st1" d="M57.4,1.7l56.3,76.1l-56.3,76.1L1.2,77.8L57.4,1.7 M57.4,0l-0.8,1.1L0.4,77.2L0,77.8l0.4,0.6l56.2,76.1
			l0.8,1.1l0.8-1.1l56.3-76.1l0.4-0.6l-0.4-0.6L58.2,1.1L57.4,0L57.4,0z"/>
	</g>
	<g id="Camada_2">
		<g id="Layer_1_1_">
			<path class="st2" d="M11.1,91.9c4.9-2.1,4.9-5.3,4.9-5.3c0.3,3.6,0,7.2-0.9,10.7l7.5,10.1c1.4-0.7,2.7-1.6,3.8-2.6
				c-0.2,2-0.7,4-1.4,5.9l2.9,3.9c2.3-0.6,4.4-1.6,6.4-2.8c0,0,1.3,4.4,2.2,7.8c13.5,1.9,27.3,1.9,40.8,0c0.9-3.4,2.2-7.8,2.2-7.8
				c2,1.2,4.2,2.1,6.4,2.8l2.9-3.9c-0.7-1.9-1.2-3.9-1.4-5.9c1.1,1,2.4,1.9,3.8,2.6l7.5-10.2c-0.9-3.5-1.2-7.1-0.9-10.7
				c0,0,0,3.2,4.9,5.3l1.1-1.5c-3.2-5.4-3.7-14.9-4.7-30.6c-1.4-23.5-5.6-27.4-21.6-32.6c-9.8-3.2-31.3-3.2-41.1,0
				c-16.1,5.2-20.1,9.1-21.6,32.6c-1,15.7-1.5,25.2-4.7,30.6L11.1,91.9z"/>
			<path class="st2" d="M56.9,153.9l27-36.5c-1.3-0.4-2.7-0.8-4.1-1.1c-7.1,4.2-39.5,4.8-45.8,0c-1.4,0.3-2.8,0.7-4.1,1.1
				L56.9,153.9z"/>
			<circle class="st3" cx="76.9" cy="76" r="2.8"/>
			<circle class="st3" cx="40.7" cy="76" r="2.8"/>
			<path class="st3" d="M96.2,77.5c0-3.6-2.7-5.3-6.3-5.6V57c0-3.5-3.9-5.9-10.1-7.5c-7.4-1.2-13.6,0-17.6,4.5
				c-8,8.8-21.5,7.3-30.5,2.7c8-0.8,9.3-5.3,12.4-8.8c-11.9,1.1-20.2,4-20.2,9.1v14.9c-3.6,0.3-6.3,2-6.3,5.6c0,5.4,2.7,8.4,6.3,9
				v1.8c-0.4,6.2,3.2,12,8.9,14.5c3.3,1.5,6.5,2.9,9.5,4.1v3.2c0,0-0.4,6.1-8.3,6.1c0,10.2,14.2,13.3,22.9,13.3s22.9-3.1,22.9-13.3
				c-7.9,0-8.3-6.1-8.3-6.1v-3.2c3-1.2,6.2-2.6,9.5-4.1c5.7-2.5,9.3-8.3,8.9-14.5v-1.7C93.5,85.9,96.2,82.9,96.2,77.5z M38.8,85.3
				c-3.9,0-7.1-3.1-7.1-7c0-0.5,0-1,0.1-1.5c-1-0.9-1.5-2.2-1.3-3.5c0.6,0.6,1.5,1,2.3,1.1c-0.6-0.3-1-1.8-0.8-3.2
				c0.4,1,2.3,1.6,2.3,1.6c3-2.5,7.5-2,10,1.1c2.5,3,2,7.5-1.1,10C41.9,84.7,40.4,85.3,38.8,85.3L38.8,85.3z M70.5,95.4
				c-2.3,2.6-5.5,4.1-9,4.1H61c-1.5,0-3.1-0.2-4.5-0.6c-0.8-0.2-1.3-1.1-1.1-1.9s1.1-1.3,1.9-1.1l0,0c0.1,0,7.1,2,10.8-2.5
				c0.6-0.7,1.5-0.7,2.2-0.2C71,93.8,71,94.8,70.5,95.4L70.5,95.4z M81.9,76.8c0.8,3.8-1.6,7.6-5.5,8.4s-7.6-1.6-8.4-5.5
				c-0.8-3.8,1.6-7.6,5.5-8.4c2.1-0.4,4.3,0.1,5.9,1.4c0,0,1.9-0.6,2.3-1.6c0.2,1.4-0.2,2.9-0.8,3.2c0.9-0.1,1.7-0.5,2.3-1.1
				C83.4,74.6,82.9,75.9,81.9,76.8z"/>
			<path class="st2" d="M39.1,66.3c-0.6-0.3-1.3-0.4-2-0.4S35.7,66,35,66.3c-0.7,0.2-1.3,0.6-1.8,1s-1,1-1.3,1.6
				c-0.1,0.2-0.1,0.4,0.1,0.5c0.1,0.1,0.3,0.1,0.4,0l0,0c0.5-0.3,1-0.7,1.5-1s1-0.5,1.6-0.7c0.5-0.2,1.1-0.4,1.6-0.4
				c0.6-0.1,1.2-0.1,1.8-0.1l0,0c0.2,0,0.4-0.2,0.4-0.4C39.3,66.4,39.2,66.3,39.1,66.3L39.1,66.3z"/>
			<path class="st2" d="M81.9,68.8c-0.3-0.6-0.8-1.1-1.3-1.6c-0.5-0.4-1.1-0.8-1.8-1c-0.7-0.3-1.4-0.4-2.1-0.4c-0.7,0-1.4,0.2-2,0.4
				c-0.2,0.1-0.3,0.3-0.2,0.5s0.2,0.3,0.4,0.3l0,0c0.6,0,1.2,0,1.8,0.1s1.1,0.2,1.6,0.4c0.5,0.2,1.1,0.4,1.6,0.7
				c0.5,0.3,1,0.6,1.5,1l0,0c0.2,0.1,0.4,0.1,0.5-0.1C81.8,69.1,81.9,68.9,81.9,68.8L81.9,68.8z"/>
			<path class="st2" d="M71.5,106.9c-2.9,0.7-5.9,1.3-8.8,1.7c8.8,1.5,14.3,0,14.3,0L71.5,106.9z"/>
		</g>
	</g>
</g>
</svg>
