<svg xmlns="http://www.w3.org/2000/svg" viewBox="0 0 193.49 70.65"><defs><style>.cls-1{fill:#fff;}.cls-2{fill:#e2024b;}</style></defs><title>Ativo 1</title><g id="Camada_2" data-name="Camada 2"><g id="Layer_1" data-name="Layer 1"><path class="cls-1" d="M6.61.74A4.36,4.36,0,0,0,3.19,2.13,5.49,5.49,0,0,0,1.94,5.94,5.71,5.71,0,0,0,3.12,9.78a4.2,4.2,0,0,0,3.37,1.37,9.11,9.11,0,0,0,2.67-.37v.71a8.72,8.72,0,0,1-2.86.4,4.87,4.87,0,0,1-3.83-1.57,6.38,6.38,0,0,1-1.4-4.39,6.9,6.9,0,0,1,.67-3.1A4.84,4.84,0,0,1,3.65.75,5.67,5.67,0,0,1,6.56,0a7,7,0,0,1,3,.63l-.32.73A5.85,5.85,0,0,0,6.61.74Z"/><path class="cls-1" d="M18.29,11.73H12V.18h6.31V.92H12.78V5.29H18V6h-5.2v5h5.51Z"/><path class="cls-1" d="M29.54,11.73h-.81L21.89,1.48h-.06q.09,1.83.09,2.77v7.49h-.77V.18H22l6.83,10.24h0q-.07-1.42-.07-2.7V.18h.78Z"/><path class="cls-1" d="M36.07,11.73h-.81V.94H31.5V.18h8.32V.94H36.07Z"/><path class="cls-1" d="M42.59,6.7v5h-.81V.18h2.75A5.18,5.18,0,0,1,47.71,1a2.83,2.83,0,0,1,1,2.39,3.12,3.12,0,0,1-.61,2,3.4,3.4,0,0,1-1.86,1.15l3.14,5.26h-1l-3-5Zm0-.7h2.2a3.52,3.52,0,0,0,2.27-.65,2.33,2.33,0,0,0,.81-1.92,2.26,2.26,0,0,0-.79-1.92A4.32,4.32,0,0,0,44.5.91H42.59Z"/><path class="cls-1" d="M61.35,5.94A6.45,6.45,0,0,1,60,10.29a5.28,5.28,0,0,1-7.58,0A6.47,6.47,0,0,1,51,5.93a6.37,6.37,0,0,1,1.39-4.34A4.77,4.77,0,0,1,56.2,0,4.73,4.73,0,0,1,60,1.59,6.46,6.46,0,0,1,61.35,5.94Zm-9.45,0A5.92,5.92,0,0,0,53,9.78a4.43,4.43,0,0,0,6.36,0,5.93,5.93,0,0,0,1.1-3.85,5.86,5.86,0,0,0-1.1-3.83,4.44,4.44,0,0,0-6.35,0A5.8,5.8,0,0,0,51.9,5.94Z"/><path class="cls-1" d="M69.5,11.73h-.81V.18H75V.92H69.5v4.9h5.21v.75H69.5Z"/><path class="cls-1" d="M82.62,7.66H77.93l-1.61,4.08h-.89L80.07.13h.51l4.55,11.6h-.91Zm-4.4-.73h4.13L80.78,2.77q-.2-.49-.47-1.36a12.68,12.68,0,0,1-.47,1.38Z"/><path class="cls-1" d="M91.55,5.91h4.26v5.27a9.57,9.57,0,0,1-3.77.71,5.49,5.49,0,0,1-4.19-1.54A6.12,6.12,0,0,1,86.39,6a6.56,6.56,0,0,1,.72-3.12A5.06,5.06,0,0,1,89.19.74,6.3,6.3,0,0,1,92.28,0a8,8,0,0,1,3.39.7l-.32.73a7.34,7.34,0,0,0-3.11-.7,4.76,4.76,0,0,0-3.62,1.41,5.3,5.3,0,0,0-1.34,3.8,5.44,5.44,0,0,0,1.27,3.92,5,5,0,0,0,3.74,1.32A7.23,7.23,0,0,0,95,10.73V6.67H91.55Z"/><path class="cls-1" d="M109.71,11.73H103.4V.18h6.31V.92h-5.51V5.29h5.2V6h-5.2v5h5.51Z"/><path class="cls-1" d="M119.64,11.73h-.92l-3.41-5.39-3.48,5.39h-.89l3.89-6L111.29.18h.91l3.12,4.95L118.49.18h.86L115.77,5.7Z"/><path class="cls-1" d="M128.48,3.5a3.07,3.07,0,0,1-1.14,2.57,5.12,5.12,0,0,1-3.22.89h-1.79v4.77h-.81V.18h2.83Q128.48.18,128.48,3.5Zm-6.15,2.77h1.59a4.82,4.82,0,0,0,2.82-.64,2.43,2.43,0,0,0,.87-2.09,2.36,2.36,0,0,0-.82-2,4.1,4.1,0,0,0-2.54-.64h-1.91Z"/><path class="cls-1" d="M137.54,11.73h-6.31V.18h6.31V.92H132V5.29h5.2V6H132v5h5.51Z"/><path class="cls-1" d="M141.21,6.7v5h-.81V.18h2.75a5.18,5.18,0,0,1,3.18.79,2.83,2.83,0,0,1,1,2.39,3.12,3.12,0,0,1-.61,2,3.4,3.4,0,0,1-1.86,1.15L148,11.73h-1l-3-5Zm0-.7h2.2a3.52,3.52,0,0,0,2.27-.65,2.33,2.33,0,0,0,.81-1.92,2.26,2.26,0,0,0-.79-1.92,4.32,4.32,0,0,0-2.58-.6h-1.91Z"/><path class="cls-1" d="M150.26,11.73V.18h.81V11.73Z"/><path class="cls-1" d="M160.89,11.73h-6.31V.18h6.31V.92h-5.51V5.29h5.2V6h-5.2v5h5.51Z"/><path class="cls-1" d="M172.15,11.73h-.81L164.49,1.48h-.06q.09,1.83.09,2.77v7.49h-.77V.18h.81l6.83,10.24h0q-.07-1.42-.07-2.7V.18h.78Z"/><path class="cls-1" d="M180.59.74a4.36,4.36,0,0,0-3.42,1.39,5.49,5.49,0,0,0-1.25,3.81,5.71,5.71,0,0,0,1.18,3.84,4.2,4.2,0,0,0,3.37,1.37,9.11,9.11,0,0,0,2.67-.37v.71a8.72,8.72,0,0,1-2.86.4,4.87,4.87,0,0,1-3.83-1.57A6.38,6.38,0,0,1,175,5.93a6.9,6.9,0,0,1,.67-3.1A4.84,4.84,0,0,1,177.63.75,5.67,5.67,0,0,1,180.55,0a7,7,0,0,1,3,.63l-.32.73A5.85,5.85,0,0,0,180.59.74Z"/><path class="cls-1" d="M192.27,11.73H186V.18h6.31V.92h-5.51V5.29H192V6h-5.2v5h5.51Z"/><rect class="cls-2" y="20.65" width="193.49" height="50"/></g></g></svg>