<svg xmlns="http://www.w3.org/2000/svg" viewBox="0 0 172.7 71.66"><defs><style>.cls-1{fill:#6ac5c6;}.cls-2{fill:#4fa5a2;}.cls-3{fill:#e2024b;}.cls-4{fill:#811340;}.cls-5{fill:#fff;}.cls-6{fill:#e73478;}.cls-7{fill:#82cdcd;}</style></defs><title>Ativo 6</title><g id="Camada_2" data-name="Camada 2"><g id="Layer_1" data-name="Layer 1"><polygon class="cls-1" points="144.8 71.64 140.24 71.64 129.75 35.83 134.32 35.83 144.8 71.64"/><polygon class="cls-2" points="132.22 35.83 141.91 69.69 144.8 71.64 134.32 35.83 132.22 35.83"/><polygon class="cls-1" points="95.94 71.66 95.6 67.71 80.14 67.71 71.35 71.66 95.94 71.66"/><polygon class="cls-3" points="120.21 71.65 123.62 67.7 139.09 67.69 144.8 71.64 120.21 71.65"/><polygon class="cls-4" points="141.91 69.69 121.91 69.69 120.21 71.65 144.8 71.64 141.91 69.69"/><polygon class="cls-2" points="95.77 69.67 75.78 69.67 71.35 71.66 95.94 71.66 95.77 69.67"/><polygon class="cls-3" points="114.29 35.83 109.73 35.84 71.35 71.66 80.14 67.71 114.29 35.83"/><polygon class="cls-3" points="115 53.86 117.61 47.17 95.6 67.71 95.94 71.66 115 53.86"/><polygon class="cls-1" points="115 53.86 117.61 47.17 123.62 67.7 120.21 71.65 115 53.86"/><polygon class="cls-3" points="129.75 35.83 134.32 35.83 172.7 0 163.91 3.95 129.75 35.83"/><polygon class="cls-3" points="129.04 17.81 126.44 24.5 148.45 3.96 148.11 0.01 129.04 17.81"/><polygon class="cls-1" points="114.29 35.83 109.73 35.84 99.25 0.02 104.96 3.97 114.29 35.83"/><polygon class="cls-3" points="123.83 0.01 120.43 3.96 104.96 3.97 99.25 0.02 123.83 0.01"/><polygon class="cls-1" points="129.04 17.81 126.44 24.5 120.43 3.96 123.83 0.01 129.04 17.81"/><polygon class="cls-1" points="148.11 0.01 148.45 3.96 163.91 3.95 172.7 0 148.11 0.01"/><path class="cls-5" d="M58.88,26.88v-.12c0-12,9.38-21.34,22.1-21.34a23.94,23.94,0,0,1,16.65,6l-6.68,8A14.48,14.48,0,0,0,81,15.57c-5.92,0-10.49,5-10.49,11.26v.12c0,6.62,4.63,11.37,11.14,11.37a11.61,11.61,0,0,0,6.57-1.7v-5H80.16V23.31H99V41.77A27.75,27.75,0,0,1,81.22,48.1C68.43,48.1,58.88,39.31,58.88,26.88Z"/><polygon class="cls-2" points="147.77 59.96 171.68 36.78 165.82 13.62 141.91 36.79 147.77 59.96"/><polygon class="cls-3" points="141.91 36.79 155.89 31.3 165.82 13.62 141.91 36.79"/><polygon class="cls-4" points="155.89 31.3 165.82 13.62 171.68 36.78 155.89 31.3"/><polygon class="cls-1" points="155.89 31.3 147.77 59.96 141.91 36.79 155.89 31.3"/><polygon class="cls-5" points="0 20.2 0 47.28 11.37 47.28 11.37 32.63 30.78 32.63 30.78 23.19 11.37 23.19 11.37 16.21 32.83 16.21 32.83 6.25 14.95 6.25 0 20.2"/><polygon class="cls-6" points="165.82 13.62 149.83 33.68 155.89 31.3 165.82 13.62"/><polygon class="cls-7" points="149.83 33.68 147.77 59.96 155.89 31.3 149.83 33.68"/><polygon class="cls-5" points="50.96 6.25 39.74 6.25 22.4 47.28 34.36 47.28 37.29 39.96 53.12 39.96 56.11 47.28 68.3 47.28 50.96 6.25"/><polygon class="cls-4" points="128.03 20.42 148.27 1.84 148.45 3.96 126.44 24.5 128.03 20.42"/><polygon class="cls-2" points="148.27 1.84 168.3 1.98 163.91 3.95 148.45 3.96 148.27 1.84"/><polygon class="cls-4" points="168.3 1.98 132.22 35.83 134.32 35.83 172.7 0 168.3 1.98"/><polygon class="cls-2" points="121.91 69.69 116.41 50.25 117.61 47.17 123.62 67.7 121.91 69.69"/><polygon class="cls-4" points="95.77 69.67 116.41 50.25 115 53.86 95.94 71.66 95.77 69.67"/><polygon class="cls-4" points="75.78 69.67 111.82 35.84 114.29 35.83 80.14 67.71 75.78 69.67"/><polygon class="cls-2" points="111.82 35.84 102.08 1.98 104.96 3.97 114.29 35.83 111.82 35.84"/><polygon class="cls-4" points="102.08 1.98 122.13 1.98 120.43 3.96 104.96 3.97 102.08 1.98"/><polygon class="cls-2" points="122.13 1.98 128.03 20.42 129.04 17.81 123.83 0.01 122.13 1.98"/></g></g></svg>