<svg xmlns="http://www.w3.org/2000/svg" xmlns:xlink="http://www.w3.org/1999/xlink" viewBox="0 0 131.67 110.38"><defs><style>.cls-1{fill:none;}.cls-2{clip-path:url(#clip-path);}.cls-3{fill:#fff;}.cls-4{fill:#dadbdc;}.cls-5{fill:#d41b24;fill-rule:evenodd;}.cls-6{fill:#00632e;}</style><clipPath id="clip-path"><rect class="cls-1" x="35.76" y="0.31" width="60.15" height="64.17"/></clipPath></defs><title>Ativo 3</title><g id="Camada_2" data-name="Camada 2"><g id="Layer_1" data-name="Layer 1"><g class="cls-2"><rect class="cls-3" x="35.76" y="0.31" width="60.15" height="64.17"/></g><path class="cls-4" d="M95.59.63H65.83V0H96.22V64.8H65.83v-.63H95.59ZM65.83.63H36.07V64.17H65.83v.63H35.45V0H65.83Z"/><path class="cls-5" d="M84.55,33.82c-3.58,2.32-9.36,4.16-16,4.83-11.35,1.15-21-1.59-21.43-6.08A3.92,3.92,0,0,1,47.83,30a2.69,2.69,0,0,0,0,.28c.34,4.5,10.54,7.42,22.7,6.49a49.12,49.12,0,0,0,14-3"/><path class="cls-6" d="M47.13,24c.45,4.49,10.08,7.23,21.43,6.08,6.63-.67,12.41-2.52,16-4.83a49.13,49.13,0,0,1-14,3c-12.16.93-22.35-2-22.7-6.49,0-.09,0-.19,0-.28A3.92,3.92,0,0,0,47.13,24"/><path class="cls-5" d="M66.13,9.44a51.37,51.37,0,0,1,8.18.63,60.48,60.48,0,0,0-6.7-.37c-10,0-17.63,2.26-17.91,5-.67,6.56,27,7.43,34.86,2.79-2.12,2.78-9.58,4.85-18.42,4.85-10.48,0-19-2.91-19-6.47s8.55-6.47,19-6.47"/><path class="cls-6" d="M47.43,55.36h3V53.72h-3Zm3,0H63.8V53.72H50.44Zm0-7.44v1.16h2.84l-.09-1.16Zm13-3.09A2.43,2.43,0,0,0,62.7,46l-2.42,6.69h1.39l.59-1.5H63.8V50H62.65l1.15-3.22V44.63a1.55,1.55,0,0,0-.35.19m-15.94-.27v8.11H50V49.08h.42V47.92H50v-2.3h.42V44.55Zm2.93,1.07h2.93V44.55H50.44Zm13.36-1v2.14h0L64.95,50H63.8v1.13h1.53l.52,1.5H68.9l-2.5-6.73a2.4,2.4,0,0,0-.73-1.15,1.78,1.78,0,0,0-1-.28,2.35,2.35,0,0,0-.83.13m12.28,3.72a3.34,3.34,0,0,0,2,3.09,3.83,3.83,0,0,0,3.73-.08v2.36h-18v1.64H84.23v-7.3H81v1.28h.8v.2a1.29,1.29,0,0,1-1.4,1.25c-1.25-.06-1.47-1.41-1.49-2.57s.32-2.69,1.58-2.72a1.61,1.61,0,0,1,1.67,1.28l1.12-.56c-.63-1.43-2-1.76-3.45-1.76a3.63,3.63,0,0,0-3.71,3.89"/><path class="cls-3" d="M40,80.22a5.56,5.56,0,0,0-1.66-1.06,4.9,4.9,0,0,0-1.82-.34A4.27,4.27,0,0,0,33.33,80a4.94,4.94,0,0,0-.08,6.31,3.93,3.93,0,0,0,3,1.15A5.31,5.31,0,0,0,40,86l0,2.73a7,7,0,0,1-1.78.75,7.61,7.61,0,0,1-2,.25,6.73,6.73,0,0,1-4.88-1.85,6.71,6.71,0,0,1,0-9.38,6.81,6.81,0,0,1,4.93-1.84,8.89,8.89,0,0,1,2,.21,8.69,8.69,0,0,1,1.86.65Z"/><polygon class="cls-3" points="42.45 89.42 42.45 76.98 49.77 76.98 49.77 79.22 45.1 79.22 45.1 81.78 49.77 81.78 49.77 84.04 45.1 84.04 45.1 87.16 49.77 87.16 49.77 89.42 42.45 89.42"/><path class="cls-3" d="M52.38,89.42V77h2.76l5.51,7.24a5.56,5.56,0,0,1,.52.86q.28.56.59,1.31-.09-.55-.14-1.1t0-1.36V77h2.54V89.42H61.52L55.86,82a5.46,5.46,0,0,1-.52-.86q-.28-.56-.59-1.33.09.54.14,1.08t0,1.38v7.1Z"/><polygon class="cls-3" points="71.54 79.24 71.54 89.42 68.88 89.42 68.88 79.24 65.83 79.24 65.83 76.98 74.59 76.98 74.59 79.24 71.54 79.24"/><path class="cls-3" d="M85.33,89.42H82.26L79,83.61v5.81H76.33V77h3.81a5.49,5.49,0,0,1,3.4.88,3.15,3.15,0,0,1,1.13,2.65,3.27,3.27,0,0,1-.77,2.19,3,3,0,0,1-2,1.06ZM79,82.28h.4a4.26,4.26,0,0,0,2.13-.35A1.38,1.38,0,0,0,82,80.7a1.48,1.48,0,0,0-.56-1.3,4,4,0,0,0-2.1-.39H79Z"/><path class="cls-3" d="M99.61,83.23a6.49,6.49,0,0,1-.5,2.52,6.2,6.2,0,0,1-1.43,2.09,6.89,6.89,0,0,1-2.18,1.42,6.65,6.65,0,0,1-4.75.11,6.9,6.9,0,0,1-2-1.11,6.32,6.32,0,0,1-2.42-5,6.45,6.45,0,0,1,.49-2.52,6.23,6.23,0,0,1,1.44-2.09,6.72,6.72,0,0,1,7.24-1.41,6.81,6.81,0,0,1,2.17,1.41,6.3,6.3,0,0,1,1.44,2.1,6.48,6.48,0,0,1,.49,2.52M93,87.38a3.65,3.65,0,0,0,2.79-1.19,4.55,4.55,0,0,0,0-5.94,3.84,3.84,0,0,0-5.58,0,4.57,4.57,0,0,0,0,6A3.68,3.68,0,0,0,93,87.38"/><path class="cls-3" d="M10.75,97.6v7.74a4.94,4.94,0,0,1-1.33,3.78,5.69,5.69,0,0,1-4,1.25,5.76,5.76,0,0,1-4.06-1.25A4.94,4.94,0,0,1,0,105.35V97.6H2.64v7.33a3.42,3.42,0,0,0,.68,2.31,2.55,2.55,0,0,0,2,.78,2.61,2.61,0,0,0,2.06-.78,3.38,3.38,0,0,0,.7-2.31V97.6Z"/><path class="cls-3" d="M13.5,110V97.6h2.76l5.51,7.24a5.61,5.61,0,0,1,.52.86q.28.56.59,1.31-.09-.55-.14-1.1t0-1.36v-7h2.54V110H22.64L17,102.67a5.44,5.44,0,0,1-.52-.86q-.28-.56-.6-1.33.09.54.14,1.08t0,1.38V110Z"/><rect class="cls-3" x="28.07" y="97.6" width="2.66" height="12.44"/><path class="cls-3" d="M36.72,110,32.12,97.6h2.94l2.42,7.76c0,.16.12.45.21.88s.2.92.31,1.47q.11-.8.24-1.42c.09-.41.17-.75.26-1L41,97.6h2.91L39.24,110Z"/><polygon class="cls-3" points="45.21 110.05 45.21 97.6 52.54 97.6 52.54 99.85 47.87 99.85 47.87 102.41 52.54 102.41 52.54 104.67 47.87 104.67 47.87 107.78 52.54 107.78 52.54 110.05 45.21 110.05"/><path class="cls-3" d="M64.15,110H61.08l-3.27-5.81V110H55.15V97.6H59a5.48,5.48,0,0,1,3.4.88,3.15,3.15,0,0,1,1.13,2.65,3.27,3.27,0,0,1-.77,2.19,3,3,0,0,1-2,1.06Zm-6.34-7.14h.4a4.26,4.26,0,0,0,2.13-.35,1.38,1.38,0,0,0,.52-1.23,1.47,1.47,0,0,0-.56-1.3,4,4,0,0,0-2.1-.39h-.4Z"/><path class="cls-3" d="M64.89,108.46l1.48-1.67a2.27,2.27,0,0,0,.9,1.08,2.54,2.54,0,0,0,1.39.4,2.27,2.27,0,0,0,1.48-.44,1.45,1.45,0,0,0,.54-1.19q0-.88-1.81-1.76l-.93-.46a6.93,6.93,0,0,1-2.26-1.66,3.06,3.06,0,0,1-.63-1.93,3.12,3.12,0,0,1,1.22-2.53,4.86,4.86,0,0,1,3.17-1,4.45,4.45,0,0,1,2,.4,4,4,0,0,1,1.45,1.24l-1.57,1.5a1.91,1.91,0,0,0-.74-.81,2.19,2.19,0,0,0-1.12-.27,2,2,0,0,0-1.27.4,1.26,1.26,0,0,0-.49,1q0,1,1.92,1.8l.59.26a6.56,6.56,0,0,1,2.34,1.63,3.14,3.14,0,0,1,.76,2.07,3.51,3.51,0,0,1-1.19,2.79,4.71,4.71,0,0,1-3.21,1,5.6,5.6,0,0,1-2.45-.49,3.31,3.31,0,0,1-1.52-1.42"/><rect class="cls-3" x="75.49" y="97.6" width="2.66" height="12.44"/><polygon class="cls-3" points="85.64 99.86 85.64 110.05 82.97 110.05 82.97 99.86 79.93 99.86 79.93 97.6 88.68 97.6 88.68 99.86 85.64 99.86"/><path class="cls-3" d="M88.94,110,93.68,97.6h3l4.8,12.44h-3l-1-2.64H92.67L91.8,110Zm7.92-4.73-1.39-4q-.06-.18-.15-.61t-.2-1.06c-.07.4-.14.76-.21,1.08s-.12.53-.15.64l-1.34,4Zm.87-12-2.66,3.14H93.87l1.67-3.14Z"/><path class="cls-3" d="M111.83,110h-3.07l-3.27-5.81V110h-2.66V97.6h3.81a5.49,5.49,0,0,1,3.4.88,3.15,3.15,0,0,1,1.13,2.65,3.27,3.27,0,0,1-.77,2.19,3,3,0,0,1-2,1.06Zm-6.34-7.14h.4a4.26,4.26,0,0,0,2.13-.35,1.38,1.38,0,0,0,.52-1.23A1.48,1.48,0,0,0,108,100a4,4,0,0,0-2.1-.39h-.4Z"/><rect class="cls-3" x="113.43" y="97.6" width="2.66" height="12.44"/><path class="cls-3" d="M131.67,103.85a6.49,6.49,0,0,1-.5,2.52,6.2,6.2,0,0,1-1.43,2.09,6.89,6.89,0,0,1-2.18,1.42,6.65,6.65,0,0,1-4.75.11,6.9,6.9,0,0,1-2-1.11,6.31,6.31,0,0,1-2.42-5,6.45,6.45,0,0,1,.49-2.52,6.23,6.23,0,0,1,1.44-2.09,6.72,6.72,0,0,1,7.24-1.41,6.81,6.81,0,0,1,2.17,1.41,6.3,6.3,0,0,1,1.44,2.1,6.47,6.47,0,0,1,.49,2.52M125,108a3.65,3.65,0,0,0,2.79-1.19,4.55,4.55,0,0,0,0-5.94,3.84,3.84,0,0,0-5.58,0,4.57,4.57,0,0,0,0,6A3.68,3.68,0,0,0,125,108"/></g></g></svg>